<svg width="100" height="100" viewBox="0 0 100 100" fill="none" xmlns="http://www.w3.org/2000/svg">
<circle cx="50" cy="50" r="50" fill="#BDE0BC"/>
<path d="M61.6667 36.6667H38.3333C37.0072 36.6667 35.7355 37.1934 34.7978 38.1311C33.8601 39.0688 33.3333 40.3406 33.3333 41.6667V58.3333C33.3333 59.6594 33.8601 60.9312 34.7978 61.8689C35.7355 62.8065 37.0072 63.3333 38.3333 63.3333H61.6667C62.9928 63.3333 64.2645 62.8065 65.2022 61.8689C66.1399 60.9312 66.6667 59.6594 66.6667 58.3333V41.6667C66.6667 40.3406 66.1399 39.0688 65.2022 38.1311C64.2645 37.1934 62.9928 36.6667 61.6667 36.6667ZM60.55 40L50 47.9167L39.45 40H60.55ZM61.6667 60H38.3333C37.8913 60 37.4674 59.8244 37.1548 59.5118C36.8423 59.1993 36.6667 58.7753 36.6667 58.3333V42.0833L49 51.3333C49.2885 51.5497 49.6394 51.6667 50 51.6667C50.3606 51.6667 50.7115 51.5497 51 51.3333L63.3333 42.0833V58.3333C63.3333 58.7753 63.1577 59.1993 62.8452 59.5118C62.5326 59.8244 62.1087 60 61.6667 60Z" fill="#149211"/>
</svg>
